<svg width="1440" height="1024" viewBox="0 0 1440 1024" fill="none" xmlns="http://www.w3.org/2000/svg">
<g clip-path="url(#clip0_1265_1199)">
<rect width="1440" height="1024" fill="#207E68"/>
<rect x="720.5" y="0.5" width="719" height="1055" fill="white" stroke="black"/>
<path fill-rule="evenodd" clip-rule="evenodd" d="M783.089 556.896C781.079 554.886 778.069 554.476 775.649 555.656L779.279 559.286C779.669 559.676 779.669 560.306 779.279 560.696L777.689 562.286C777.299 562.686 776.669 562.686 776.279 562.286L772.649 558.656C771.479 561.086 771.889 564.076 773.899 566.086C775.759 567.946 778.479 568.436 780.789 567.566L788.749 575.526C789.779 576.556 791.439 576.556 792.459 575.526C793.489 574.496 793.489 572.836 792.459 571.816L784.539 563.886C785.459 561.546 784.979 558.786 783.089 556.896Z" fill="#C3CAD9"/>
<path d="M1706.5 42C1706.5 139.202 1566.19 319 1466.5 319C1311 319 1161 110.702 1161 13.5C1161 -83.7021 1264.31 -213 1364 -213C1463.69 -213 1706.5 -55.2021 1706.5 42Z" fill="#207E68"/>
<path d="M1064 -6.32518C1064 27.4763 1003.81 90 961.048 90C894.345 90 830 17.5656 830 -16.2359C830 -50.0374 874.317 -95 917.08 -95C959.842 -95 1064 -40.1267 1064 -6.32518Z" fill="#207E68"/>
<path d="M1713 1004.98C1713 1143.61 1519.6 1345 1289.55 1345C1059.49 1345 873 1232.62 873 1094C873 955.378 1043.85 799.709 1273.9 799.709C1494.83 772.469 1713 866.361 1713 1004.98Z" fill="#2AAA8A"/>
<g style="mix-blend-mode:plus-darker">
<ellipse cx="229" cy="398" rx="376" ry="339" fill="#D9D9D9"/>
</g>
<ellipse cx="185" cy="871" rx="79" ry="75" fill="#E1FFF8"/>
<ellipse cx="291.5" cy="1012.5" rx="41.5" ry="43.5" fill="#5AB19C"/>
</g>
<defs>
<clipPath id="clip0_1265_1199">
<rect width="1440" height="1024" fill="white"/>
</clipPath>
</defs>
</svg>
